<svg width="21" height="21" viewBox="0 0 21 21" fill="none" xmlns="http://www.w3.org/2000/svg">
<path d="M17.3866 12.6282C16.9362 12.1592 16.3929 11.9084 15.8171 11.9084C15.246 11.9084 14.6981 12.1545 14.2291 12.6235L12.7619 14.0861C12.6412 14.0211 12.5204 13.9608 12.4044 13.9004C12.2372 13.8168 12.0793 13.7379 11.9447 13.6543C10.5703 12.7814 9.32123 11.6438 8.12327 10.1719C7.54287 9.43824 7.15283 8.82069 6.8696 8.19385C7.25034 7.8456 7.60323 7.48343 7.94683 7.13518C8.07684 7.00517 8.20685 6.87052 8.33686 6.74051C9.31195 5.76543 9.31195 4.50246 8.33686 3.52738L7.06926 2.25977C6.92532 2.11583 6.77673 1.96725 6.63743 1.81866C6.35884 1.53078 6.06631 1.23361 5.7645 0.955019C5.31411 0.509267 4.77549 0.272461 4.20901 0.272461C3.64254 0.272461 3.09463 0.509267 2.63031 0.955019C2.62567 0.959662 2.62567 0.959662 2.62102 0.964305L1.04232 2.55694C0.447981 3.15128 0.109023 3.87562 0.0347313 4.71605C-0.0767067 6.07188 0.322613 7.33485 0.629067 8.16134C1.38127 10.1904 2.50494 12.071 4.18115 14.0861C6.2149 16.5146 8.66189 18.4322 11.4571 19.7834C12.5251 20.2895 13.9506 20.8885 15.5432 20.9906C15.6407 20.9953 15.7428 20.9999 15.8357 20.9999C16.9083 20.9999 17.8091 20.6145 18.5149 19.8484C18.5195 19.8391 18.5288 19.8345 18.5334 19.8252C18.7749 19.5327 19.0535 19.268 19.346 18.9848C19.5457 18.7944 19.75 18.5947 19.9496 18.3858C20.4093 17.9075 20.6508 17.3503 20.6508 16.7792C20.6508 16.2035 20.4047 15.6509 19.9357 15.1866L17.3866 12.6282ZM19.0488 17.5175C19.0442 17.5175 19.0442 17.5221 19.0488 17.5175C18.8678 17.7125 18.682 17.889 18.4824 18.084C18.1806 18.3719 17.8741 18.6737 17.5862 19.0126C17.1173 19.5141 16.5647 19.7509 15.8404 19.7509C15.7707 19.7509 15.6964 19.7509 15.6268 19.7463C14.2477 19.658 12.9662 19.1194 12.005 18.6597C9.37695 17.3875 7.06926 15.5813 5.15159 13.2921C3.56825 11.3838 2.50958 9.61932 1.80845 7.72488C1.37663 6.56871 1.21876 5.66792 1.28841 4.8182C1.33484 4.27494 1.54379 3.82455 1.92918 3.43916L3.51253 1.85581C3.74005 1.64222 3.98149 1.52614 4.2183 1.52614C4.51083 1.52614 4.74763 1.70258 4.89621 1.85117C4.90086 1.85581 4.9055 1.86045 4.91014 1.8651C5.19338 2.12976 5.46269 2.40371 5.74593 2.69624C5.88987 2.84482 6.03845 2.99341 6.18704 3.14663L7.45465 4.41424C7.94683 4.90643 7.94683 5.36146 7.45465 5.85365C7.31999 5.9883 7.18998 6.12296 7.05533 6.25297C6.66529 6.65229 6.29383 7.02375 5.88987 7.38592C5.88058 7.39521 5.8713 7.39985 5.86665 7.40914C5.46733 7.80846 5.54163 8.19849 5.62521 8.46315C5.62985 8.47708 5.63449 8.49101 5.63913 8.50494C5.96881 9.30358 6.43313 10.0558 7.1389 10.9519L7.14355 10.9566C8.42509 12.5353 9.77627 13.7657 11.2668 14.7083C11.4571 14.8291 11.6521 14.9266 11.8379 15.0194C12.005 15.103 12.1629 15.1819 12.2976 15.2655C12.3161 15.2748 12.3347 15.2887 12.3533 15.298C12.5111 15.377 12.6597 15.4141 12.813 15.4141C13.1983 15.4141 13.4398 15.1727 13.5187 15.0937L15.1067 13.5057C15.2646 13.3479 15.5153 13.1575 15.8079 13.1575C16.0957 13.1575 16.3325 13.3386 16.4765 13.4964C16.4811 13.5011 16.4811 13.5011 16.4858 13.5057L19.0442 16.0642C19.5225 16.5378 19.5225 17.0253 19.0488 17.5175Z" fill="white"/>
</svg>
